<mxfile host="app.diagrams.net" modified="2024-04-05T00:28:39.934Z" agent="Mozilla/5.0 (Macintosh; Intel Mac OS X 10_15_7) AppleWebKit/537.36 (KHTML, like Gecko) Chrome/123.0.0.0 Safari/537.36" etag="VotTYHXsXalSmysDZRl8" version="24.2.2" type="github">
  <diagram name="Page-1" id="ymszRhyD757vXrpuv6Kg">
    <mxGraphModel dx="1590" dy="1067" grid="1" gridSize="10" guides="1" tooltips="1" connect="1" arrows="1" fold="1" page="1" pageScale="1" pageWidth="850" pageHeight="1100" background="none" math="0" shadow="0">
      <root>
        <mxCell id="0" />
        <mxCell id="1" parent="0" />
        <mxCell id="negmUvcFTkA1tcDK7jtH-7" value="" style="edgeStyle=orthogonalEdgeStyle;rounded=0;orthogonalLoop=1;jettySize=auto;html=1;" edge="1" parent="1" source="negmUvcFTkA1tcDK7jtH-5" target="negmUvcFTkA1tcDK7jtH-6">
          <mxGeometry relative="1" as="geometry" />
        </mxCell>
        <mxCell id="negmUvcFTkA1tcDK7jtH-9" value="" style="edgeStyle=orthogonalEdgeStyle;rounded=0;orthogonalLoop=1;jettySize=auto;html=1;" edge="1" parent="1" source="negmUvcFTkA1tcDK7jtH-5" target="negmUvcFTkA1tcDK7jtH-8">
          <mxGeometry relative="1" as="geometry" />
        </mxCell>
        <mxCell id="negmUvcFTkA1tcDK7jtH-5" value="User" style="rounded=0;whiteSpace=wrap;html=1;" vertex="1" parent="1">
          <mxGeometry x="40" y="110" width="120" height="60" as="geometry" />
        </mxCell>
        <mxCell id="negmUvcFTkA1tcDK7jtH-21" value="" style="edgeStyle=orthogonalEdgeStyle;rounded=0;orthogonalLoop=1;jettySize=auto;html=1;" edge="1" parent="1" source="negmUvcFTkA1tcDK7jtH-6" target="negmUvcFTkA1tcDK7jtH-20">
          <mxGeometry relative="1" as="geometry" />
        </mxCell>
        <mxCell id="negmUvcFTkA1tcDK7jtH-6" value="Buyer" style="ellipse;whiteSpace=wrap;html=1;rounded=0;" vertex="1" parent="1">
          <mxGeometry x="60" y="550" width="80" height="80" as="geometry" />
        </mxCell>
        <mxCell id="negmUvcFTkA1tcDK7jtH-11" value="" style="edgeStyle=orthogonalEdgeStyle;rounded=0;orthogonalLoop=1;jettySize=auto;html=1;" edge="1" parent="1" source="negmUvcFTkA1tcDK7jtH-8" target="negmUvcFTkA1tcDK7jtH-10">
          <mxGeometry relative="1" as="geometry" />
        </mxCell>
        <mxCell id="negmUvcFTkA1tcDK7jtH-8" value="Seller" style="ellipse;whiteSpace=wrap;html=1;rounded=0;" vertex="1" parent="1">
          <mxGeometry x="260" y="100" width="80" height="80" as="geometry" />
        </mxCell>
        <mxCell id="negmUvcFTkA1tcDK7jtH-15" value="" style="edgeStyle=orthogonalEdgeStyle;rounded=0;orthogonalLoop=1;jettySize=auto;html=1;" edge="1" parent="1" source="negmUvcFTkA1tcDK7jtH-10" target="negmUvcFTkA1tcDK7jtH-14">
          <mxGeometry relative="1" as="geometry" />
        </mxCell>
        <mxCell id="negmUvcFTkA1tcDK7jtH-10" value="List Product request&lt;div&gt;&lt;ul&gt;&lt;li&gt;Product details&lt;/li&gt;&lt;li&gt;Auction Base Price&lt;/li&gt;&lt;li&gt;Unit amount for bids&lt;/li&gt;&lt;li&gt;Desired TIme slots&lt;/li&gt;&lt;/ul&gt;&lt;/div&gt;" style="rounded=0;whiteSpace=wrap;html=1;align=left;" vertex="1" parent="1">
          <mxGeometry x="401" y="90" width="190" height="100" as="geometry" />
        </mxCell>
        <mxCell id="negmUvcFTkA1tcDK7jtH-17" value="" style="edgeStyle=orthogonalEdgeStyle;rounded=0;orthogonalLoop=1;jettySize=auto;html=1;" edge="1" parent="1" source="negmUvcFTkA1tcDK7jtH-14" target="negmUvcFTkA1tcDK7jtH-16">
          <mxGeometry relative="1" as="geometry" />
        </mxCell>
        <mxCell id="negmUvcFTkA1tcDK7jtH-14" value="Manager approves&lt;div&gt;and assign time slots&lt;/div&gt;" style="shape=hexagon;perimeter=hexagonPerimeter2;whiteSpace=wrap;html=1;fixedSize=1;align=center;rounded=0;" vertex="1" parent="1">
          <mxGeometry x="705" y="100" width="120" height="80" as="geometry" />
        </mxCell>
        <mxCell id="negmUvcFTkA1tcDK7jtH-19" value="" style="edgeStyle=orthogonalEdgeStyle;rounded=0;orthogonalLoop=1;jettySize=auto;html=1;" edge="1" parent="1" source="negmUvcFTkA1tcDK7jtH-16" target="negmUvcFTkA1tcDK7jtH-18">
          <mxGeometry relative="1" as="geometry" />
        </mxCell>
        <mxCell id="negmUvcFTkA1tcDK7jtH-16" value="Seller confirms" style="rounded=0;whiteSpace=wrap;html=1;" vertex="1" parent="1">
          <mxGeometry x="705" y="270" width="120" height="60" as="geometry" />
        </mxCell>
        <mxCell id="negmUvcFTkA1tcDK7jtH-18" value="Product get listed in the time slots" style="rounded=0;whiteSpace=wrap;html=1;" vertex="1" parent="1">
          <mxGeometry x="505" y="270" width="120" height="60" as="geometry" />
        </mxCell>
        <mxCell id="negmUvcFTkA1tcDK7jtH-23" value="" style="edgeStyle=orthogonalEdgeStyle;rounded=0;orthogonalLoop=1;jettySize=auto;html=1;" edge="1" parent="1" source="negmUvcFTkA1tcDK7jtH-20" target="negmUvcFTkA1tcDK7jtH-22">
          <mxGeometry relative="1" as="geometry" />
        </mxCell>
        <mxCell id="negmUvcFTkA1tcDK7jtH-20" value="Adds money to wallet" style="whiteSpace=wrap;html=1;rounded=0;" vertex="1" parent="1">
          <mxGeometry x="200" y="560" width="120" height="60" as="geometry" />
        </mxCell>
        <mxCell id="negmUvcFTkA1tcDK7jtH-28" value="" style="edgeStyle=orthogonalEdgeStyle;rounded=0;orthogonalLoop=1;jettySize=auto;html=1;" edge="1" parent="1" source="negmUvcFTkA1tcDK7jtH-22" target="negmUvcFTkA1tcDK7jtH-27">
          <mxGeometry relative="1" as="geometry" />
        </mxCell>
        <mxCell id="negmUvcFTkA1tcDK7jtH-24" value="surfs the products" style="edgeStyle=orthogonalEdgeStyle;rounded=0;orthogonalLoop=1;jettySize=auto;html=1;" edge="1" parent="1" source="negmUvcFTkA1tcDK7jtH-22" target="negmUvcFTkA1tcDK7jtH-20">
          <mxGeometry relative="1" as="geometry" />
        </mxCell>
        <mxCell id="negmUvcFTkA1tcDK7jtH-22" value="Finds the desired product listed" style="whiteSpace=wrap;html=1;rounded=0;" vertex="1" parent="1">
          <mxGeometry x="480" y="560" width="120" height="60" as="geometry" />
        </mxCell>
        <mxCell id="negmUvcFTkA1tcDK7jtH-30" value="if highest bid" style="edgeStyle=orthogonalEdgeStyle;rounded=0;orthogonalLoop=1;jettySize=auto;html=1;" edge="1" parent="1" source="negmUvcFTkA1tcDK7jtH-27" target="negmUvcFTkA1tcDK7jtH-29">
          <mxGeometry relative="1" as="geometry" />
        </mxCell>
        <mxCell id="negmUvcFTkA1tcDK7jtH-32" value="if doesn&#39;t win" style="edgeStyle=orthogonalEdgeStyle;rounded=0;orthogonalLoop=1;jettySize=auto;html=1;" edge="1" parent="1" source="negmUvcFTkA1tcDK7jtH-27" target="negmUvcFTkA1tcDK7jtH-31">
          <mxGeometry relative="1" as="geometry" />
        </mxCell>
        <mxCell id="negmUvcFTkA1tcDK7jtH-27" value="Bids in the auction" style="rhombus;whiteSpace=wrap;html=1;rounded=0;" vertex="1" parent="1">
          <mxGeometry x="700" y="550" width="120" height="130" as="geometry" />
        </mxCell>
        <mxCell id="negmUvcFTkA1tcDK7jtH-29" value="Money get deducted from wallet" style="rounded=0;whiteSpace=wrap;html=1;" vertex="1" parent="1">
          <mxGeometry x="700" y="795" width="120" height="60" as="geometry" />
        </mxCell>
        <mxCell id="negmUvcFTkA1tcDK7jtH-31" value="Money instantly get added to wallet" style="whiteSpace=wrap;html=1;rounded=0;" vertex="1" parent="1">
          <mxGeometry x="700" y="400" width="120" height="60" as="geometry" />
        </mxCell>
      </root>
    </mxGraphModel>
  </diagram>
</mxfile>
